<mxfile host="Electron" modified="2025-10-19T00:00:00.000Z" agent="Mozilla/5.0 (Windows NT 10.0; Win64; x64) AppleWebKit/537.36" etag="abc132" version="24.7.5" type="device">
  <diagram name="푸시 알림 시스템 API" id="notification-diagram">
    <mxGraphModel dx="1422" dy="794" grid="1" gridSize="10" guides="1" tooltips="1" connect="1" arrows="1" fold="1" page="1" pageScale="1" pageWidth="1169" pageHeight="827" math="0" shadow="0">
      <root>
        <mxCell id="0"/>
        <mxCell id="1" parent="0"/>
        <mxCell id="title" value="🔔 푸시 알림 시스템 API&#xa;(FCM 기반 알림 서비스)" style="text;html=1;strokeColor=none;fillColor=none;align=center;verticalAlign=middle;whiteSpace=wrap;rounded=0;fontSize=24;fontStyle=1" parent="1" vertex="1">
          <mxGeometry x="350" y="20" width="400" height="60" as="geometry"/>
        </mxCell>
        <mxCell id="fcm-token-register" value="POST /api/fcm/token/register&#xa;📱 FCM 토큰 등록" style="rounded=1;whiteSpace=wrap;html=1;fillColor=#4CAF50;strokeColor=#2E7D32;fontColor=#FFFFFF;fontSize=12;fontStyle=1" parent="1" vertex="1">
          <mxGeometry x="200" y="120" width="180" height="80" as="geometry"/>
        </mxCell>
        <mxCell id="fcm-token-update" value="POST /api/fcm/token/update&#xa;🔄 FCM 토큰 갱신" style="rounded=1;whiteSpace=wrap;html=1;fillColor=#2196F3;strokeColor=#0D47A1;fontColor=#FFFFFF;fontSize=12;fontStyle=1" parent="1" vertex="1">
          <mxGeometry x="420" y="120" width="180" height="80" as="geometry"/>
        </mxCell>
        <mxCell id="fcm-token-delete" value="POST /api/fcm/token/delete&#xa;🗑️ FCM 토큰 삭제" style="rounded=1;whiteSpace=wrap;html=1;fillColor=#FF9800;strokeColor=#E65100;fontColor=#FFFFFF;fontSize=12;fontStyle=1" parent="1" vertex="1">
          <mxGeometry x="640" y="120" width="180" height="80" as="geometry"/>
        </mxCell>
        <mxCell id="push-send" value="POST /api/push/send&#xa;📤 푸시 알림 전송" style="rounded=1;whiteSpace=wrap;html=1;fillColor=#9C27B0;strokeColor=#4A148C;fontColor=#FFFFFF;fontSize=12;fontStyle=1" parent="1" vertex="1">
          <mxGeometry x="200" y="240" width="180" height="80" as="geometry"/>
        </mxCell>
        <mxCell id="push-send-batch" value="POST /api/push/send-batch&#xa;📤 일괄 푸시 전송" style="rounded=1;whiteSpace=wrap;html=1;fillColor=#FF5722;strokeColor=#BF360C;fontColor=#FFFFFF;fontSize=12;fontStyle=1" parent="1" vertex="1">
          <mxGeometry x="420" y="240" width="180" height="80" as="geometry"/>
        </mxCell>
        <mxCell id="push-history" value="POST /api/push/history&#xa;📋 알림 전송 이력" style="rounded=1;whiteSpace=wrap;html=1;fillColor=#795548;strokeColor=#3E2723;fontColor=#FFFFFF;fontSize=12;fontStyle=1" parent="1" vertex="1">
          <mxGeometry x="640" y="240" width="180" height="80" as="geometry"/>
        </mxCell>
        <mxCell id="push-admin-send" value="POST /api/push/admin/send&#xa;👨‍💼 관리자 알림 전송" style="rounded=1;whiteSpace=wrap;html=1;fillColor=#607D8B;strokeColor=#263238;fontColor=#FFFFFF;fontSize=12;fontStyle=1" parent="1" vertex="1">
          <mxGeometry x="310" y="360" width="180" height="80" as="geometry"/>
        </mxCell>
        <mxCell id="fcm-integration" value="🔥 FCM 통합&#xa;• Firebase Admin SDK&#xa;• 토큰 관리&#xa;• 배치 전송" style="text;html=1;strokeColor=#2196F3;fillColor=#E3F2FD;align=left;verticalAlign=top;whiteSpace=wrap;rounded=1;fontSize=12" parent="1" vertex="1">
          <mxGeometry x="100" y="120" width="150" height="120" as="geometry"/>
        </mxCell>
        <mxCell id="notification-types" value="📢 알림 유형&#xa;• 공지사항&#xa;• 일정 알림&#xa;• 과제 알림&#xa;• 예약 알림&#xa;• 긴급 알림" style="text;html=1;strokeColor=#FF9800;fillColor=#FFF3E0;align=left;verticalAlign=top;whiteSpace=wrap;rounded=1;fontSize=12" parent="1" vertex="1">
          <mxGeometry x="850" y="120" width="150" height="120" as="geometry"/>
        </mxCell>
        <mxCell id="delivery-tracking" value="📊 전송 추적&#xa;• 성공/실패 상태&#xa;• 전송 시간&#xa;• 재시도 로직" style="text;html=1;strokeColor=#4CAF50;fillColor=#E8F5E8;align=left;verticalAlign=top;whiteSpace=wrap;rounded=1;fontSize=12" parent="1" vertex="1">
          <mxGeometry x="850" y="260" width="150" height="100" as="geometry"/>
        </mxCell>
        <mxCell id="flow1" value="" style="endArrow=classic;html=1;rounded=0;exitX=0.5;exitY=1;entryX=0.5;entryY=0" parent="1" source="fcm-token-register" target="fcm-token-update" edge="1">
          <mxGeometry width="50" height="50" relative="1" as="geometry">
            <mxPoint x="-20" y="30" as="sourcePoint"/>
            <mxPoint x="30" y="-20" as="targetPoint"/>
          </mxGeometry>
        </mxCell>
        <mxCell id="flow2" value="" style="endArrow=classic;html=1;rounded=0;exitX=0.5;exitY=1;entryX=0.5;entryY=0" parent="1" source="fcm-token-update" target="fcm-token-delete" edge="1">
          <mxGeometry width="50" height="50" relative="1" as="geometry">
            <mxPoint x="-20" y="30" as="sourcePoint"/>
            <mxPoint x="30" y="-20" as="targetPoint"/>
          </mxGeometry>
        </mxCell>
        <mxCell id="flow3" value="" style="endArrow=classic;html=1;rounded=0;exitX=0.5;exitY=1;entryX=0.5;entryY=0" parent="1" source="fcm-token-register" target="push-send" edge="1">
          <mxGeometry width="50" height="50" relative="1" as="geometry">
            <mxPoint x="-20" y="30" as="sourcePoint"/>
            <mxPoint x="30" y="-20" as="targetPoint"/>
          </mxGeometry>
        </mxCell>
        <mxCell id="flow4" value="" style="endArrow=classic;html=1;rounded=0;exitX=0.5;exitY=1;entryX=0.5;entryY=0" parent="1" source="push-send" target="push-send-batch" edge="1">
          <mxGeometry width="50" height="50" relative="1" as="geometry">
            <mxPoint x="-20" y="30" as="sourcePoint"/>
            <mxPoint x="30" y="-20" as="targetPoint"/>
          </mxGeometry>
        </mxCell>
        <mxCell id="flow5" value="" style="endArrow=classic;html=1;rounded=0;exitX=0.5;exitY=1;entryX=0.5;entryY=0" parent="1" source="push-send-batch" target="push-history" edge="1">
          <mxGeometry width="50" height="50" relative="1" as="geometry">
            <mxPoint x="-20" y="30" as="sourcePoint"/>
            <mxPoint x="30" y="-20" as="targetPoint"/>
          </mxGeometry>
        </mxCell>
        <mxCell id="flow6" value="" style="endArrow=classic;html=1;rounded=0;exitX=0.5;exitY=1;entryX=0.5;entryY=0" parent="1" source="push-send-batch" target="push-admin-send" edge="1">
          <mxGeometry width="50" height="50" relative="1" as="geometry">
            <mxPoint x="-20" y="30" as="sourcePoint"/>
            <mxPoint x="30" y="-20" as="targetPoint"/>
          </mxGeometry>
        </mxCell>
        <mxCell id="legend" value="🎨 범례&#xa;🟢 POST - 토큰등록&#xa;🔵 POST - 토큰갱신&#xa;🟠 POST - 토큰삭제&#xa;🟣 POST - 단일전송&#xa;🟡 POST - 일괄전송&#xa;🟤 POST - 전송이력&#xa;🔵 POST - 관리자전송" style="text;html=1;strokeColor=none;fillColor=#F5F5F5;align=left;verticalAlign=top;whiteSpace=wrap;rounded=1;fontSize=10" parent="1" vertex="1">
          <mxGeometry x="100" y="480" width="200" height="140" as="geometry"/>
        </mxCell>
      </root>
    </mxGraphModel>
  </diagram>
</mxfile>